<mxfile host="app.diagrams.net" modified="2024-06-14T16:49:00.838Z" agent="Mozilla/5.0 (Windows NT 10.0; Win64; x64) AppleWebKit/537.36 (KHTML, like Gecko) Chrome/125.0.0.0 Safari/537.36" etag="cdb8NkCJ_r7CpIZSbTqa" version="24.5.4" type="device">
  <diagram name="PÃ¡gina-1" id="VIN52RGsUoFbpufCR73E">
    <mxGraphModel dx="1771" dy="1542" grid="1" gridSize="10" guides="1" tooltips="1" connect="1" arrows="1" fold="1" page="1" pageScale="1" pageWidth="827" pageHeight="1169" math="0" shadow="0">
      <root>
        <mxCell id="0" />
        <mxCell id="1" parent="0" />
        <mxCell id="ZjvF378gRw1T9r-hCI8s-1" value="Pasajes" style="swimlane;fontStyle=1;align=center;verticalAlign=top;childLayout=stackLayout;horizontal=1;startSize=26;horizontalStack=0;resizeParent=1;resizeParentMax=0;resizeLast=0;collapsible=1;marginBottom=0;whiteSpace=wrap;html=1;" vertex="1" parent="1">
          <mxGeometry x="320" y="30" width="160" height="86" as="geometry" />
        </mxCell>
        <mxCell id="ZjvF378gRw1T9r-hCI8s-2" value="Nombre: String" style="text;strokeColor=none;fillColor=none;align=left;verticalAlign=top;spacingLeft=4;spacingRight=4;overflow=hidden;rotatable=0;points=[[0,0.5],[1,0.5]];portConstraint=eastwest;whiteSpace=wrap;html=1;" vertex="1" parent="ZjvF378gRw1T9r-hCI8s-1">
          <mxGeometry y="26" width="160" height="26" as="geometry" />
        </mxCell>
        <mxCell id="ZjvF378gRw1T9r-hCI8s-3" value="" style="line;strokeWidth=1;fillColor=none;align=left;verticalAlign=middle;spacingTop=-1;spacingLeft=3;spacingRight=3;rotatable=0;labelPosition=right;points=[];portConstraint=eastwest;strokeColor=inherit;" vertex="1" parent="ZjvF378gRw1T9r-hCI8s-1">
          <mxGeometry y="52" width="160" height="8" as="geometry" />
        </mxCell>
        <mxCell id="ZjvF378gRw1T9r-hCI8s-4" value="+ method(type): type" style="text;strokeColor=none;fillColor=none;align=left;verticalAlign=top;spacingLeft=4;spacingRight=4;overflow=hidden;rotatable=0;points=[[0,0.5],[1,0.5]];portConstraint=eastwest;whiteSpace=wrap;html=1;" vertex="1" parent="ZjvF378gRw1T9r-hCI8s-1">
          <mxGeometry y="60" width="160" height="26" as="geometry" />
        </mxCell>
        <mxCell id="ZjvF378gRw1T9r-hCI8s-5" value="&lt;div&gt;Ruta&lt;/div&gt;" style="swimlane;fontStyle=1;align=center;verticalAlign=top;childLayout=stackLayout;horizontal=1;startSize=26;horizontalStack=0;resizeParent=1;resizeParentMax=0;resizeLast=0;collapsible=1;marginBottom=0;whiteSpace=wrap;html=1;" vertex="1" parent="1">
          <mxGeometry x="334" y="460" width="160" height="94" as="geometry" />
        </mxCell>
        <mxCell id="ZjvF378gRw1T9r-hCI8s-6" value="+ Destino: String" style="text;strokeColor=none;fillColor=none;align=left;verticalAlign=top;spacingLeft=4;spacingRight=4;overflow=hidden;rotatable=0;points=[[0,0.5],[1,0.5]];portConstraint=eastwest;whiteSpace=wrap;html=1;" vertex="1" parent="ZjvF378gRw1T9r-hCI8s-5">
          <mxGeometry y="26" width="160" height="34" as="geometry" />
        </mxCell>
        <mxCell id="ZjvF378gRw1T9r-hCI8s-7" value="" style="line;strokeWidth=1;fillColor=none;align=left;verticalAlign=middle;spacingTop=-1;spacingLeft=3;spacingRight=3;rotatable=0;labelPosition=right;points=[];portConstraint=eastwest;strokeColor=inherit;" vertex="1" parent="ZjvF378gRw1T9r-hCI8s-5">
          <mxGeometry y="60" width="160" height="8" as="geometry" />
        </mxCell>
        <mxCell id="ZjvF378gRw1T9r-hCI8s-8" value="+ method(type): type" style="text;strokeColor=none;fillColor=none;align=left;verticalAlign=top;spacingLeft=4;spacingRight=4;overflow=hidden;rotatable=0;points=[[0,0.5],[1,0.5]];portConstraint=eastwest;whiteSpace=wrap;html=1;" vertex="1" parent="ZjvF378gRw1T9r-hCI8s-5">
          <mxGeometry y="68" width="160" height="26" as="geometry" />
        </mxCell>
        <mxCell id="ZjvF378gRw1T9r-hCI8s-13" value="&lt;div&gt;Ticket&lt;/div&gt;" style="swimlane;fontStyle=1;align=center;verticalAlign=top;childLayout=stackLayout;horizontal=1;startSize=26;horizontalStack=0;resizeParent=1;resizeParentMax=0;resizeLast=0;collapsible=1;marginBottom=0;whiteSpace=wrap;html=1;" vertex="1" parent="1">
          <mxGeometry x="330" y="610" width="160" height="84" as="geometry" />
        </mxCell>
        <mxCell id="ZjvF378gRw1T9r-hCI8s-14" value="+ Precio: double" style="text;strokeColor=none;fillColor=none;align=left;verticalAlign=top;spacingLeft=4;spacingRight=4;overflow=hidden;rotatable=0;points=[[0,0.5],[1,0.5]];portConstraint=eastwest;whiteSpace=wrap;html=1;" vertex="1" parent="ZjvF378gRw1T9r-hCI8s-13">
          <mxGeometry y="26" width="160" height="24" as="geometry" />
        </mxCell>
        <mxCell id="ZjvF378gRw1T9r-hCI8s-15" value="" style="line;strokeWidth=1;fillColor=none;align=left;verticalAlign=middle;spacingTop=-1;spacingLeft=3;spacingRight=3;rotatable=0;labelPosition=right;points=[];portConstraint=eastwest;strokeColor=inherit;" vertex="1" parent="ZjvF378gRw1T9r-hCI8s-13">
          <mxGeometry y="50" width="160" height="8" as="geometry" />
        </mxCell>
        <mxCell id="ZjvF378gRw1T9r-hCI8s-16" value="+ Calcular Costo pasaje: Double&lt;div&gt;+ Mostrar informacion: void&lt;/div&gt;" style="text;strokeColor=none;fillColor=none;align=left;verticalAlign=top;spacingLeft=4;spacingRight=4;overflow=hidden;rotatable=0;points=[[0,0.5],[1,0.5]];portConstraint=eastwest;whiteSpace=wrap;html=1;" vertex="1" parent="ZjvF378gRw1T9r-hCI8s-13">
          <mxGeometry y="58" width="160" height="26" as="geometry" />
        </mxCell>
        <mxCell id="ZjvF378gRw1T9r-hCI8s-21" style="edgeStyle=orthogonalEdgeStyle;rounded=0;orthogonalLoop=1;jettySize=auto;html=1;exitX=0.5;exitY=0;exitDx=0;exitDy=0;entryX=0;entryY=0.5;entryDx=0;entryDy=0;" edge="1" parent="1" source="ZjvF378gRw1T9r-hCI8s-17" target="ZjvF378gRw1T9r-hCI8s-2">
          <mxGeometry relative="1" as="geometry" />
        </mxCell>
        <mxCell id="ZjvF378gRw1T9r-hCI8s-17" value="Pasajero" style="swimlane;fontStyle=1;align=center;verticalAlign=top;childLayout=stackLayout;horizontal=1;startSize=26;horizontalStack=0;resizeParent=1;resizeParentMax=0;resizeLast=0;collapsible=1;marginBottom=0;whiteSpace=wrap;html=1;" vertex="1" parent="1">
          <mxGeometry x="320" y="240" width="160" height="134" as="geometry" />
        </mxCell>
        <mxCell id="ZjvF378gRw1T9r-hCI8s-18" value="Nombre: String&lt;div&gt;+ Apellido: String&lt;/div&gt;&lt;div&gt;+ Cedula:String&lt;/div&gt;&lt;div&gt;+Asiento: int&lt;/div&gt;&lt;div&gt;&lt;br&gt;&lt;/div&gt;" style="text;strokeColor=none;fillColor=none;align=left;verticalAlign=top;spacingLeft=4;spacingRight=4;overflow=hidden;rotatable=0;points=[[0,0.5],[1,0.5]];portConstraint=eastwest;whiteSpace=wrap;html=1;" vertex="1" parent="ZjvF378gRw1T9r-hCI8s-17">
          <mxGeometry y="26" width="160" height="74" as="geometry" />
        </mxCell>
        <mxCell id="ZjvF378gRw1T9r-hCI8s-19" value="" style="line;strokeWidth=1;fillColor=none;align=left;verticalAlign=middle;spacingTop=-1;spacingLeft=3;spacingRight=3;rotatable=0;labelPosition=right;points=[];portConstraint=eastwest;strokeColor=inherit;" vertex="1" parent="ZjvF378gRw1T9r-hCI8s-17">
          <mxGeometry y="100" width="160" height="8" as="geometry" />
        </mxCell>
        <mxCell id="ZjvF378gRw1T9r-hCI8s-20" value="+ method(type): type" style="text;strokeColor=none;fillColor=none;align=left;verticalAlign=top;spacingLeft=4;spacingRight=4;overflow=hidden;rotatable=0;points=[[0,0.5],[1,0.5]];portConstraint=eastwest;whiteSpace=wrap;html=1;" vertex="1" parent="ZjvF378gRw1T9r-hCI8s-17">
          <mxGeometry y="108" width="160" height="26" as="geometry" />
        </mxCell>
        <mxCell id="ZjvF378gRw1T9r-hCI8s-22" style="edgeStyle=orthogonalEdgeStyle;rounded=0;orthogonalLoop=1;jettySize=auto;html=1;exitX=0.5;exitY=0;exitDx=0;exitDy=0;entryX=1;entryY=0.5;entryDx=0;entryDy=0;" edge="1" parent="1" source="ZjvF378gRw1T9r-hCI8s-5" target="ZjvF378gRw1T9r-hCI8s-18">
          <mxGeometry relative="1" as="geometry" />
        </mxCell>
        <mxCell id="ZjvF378gRw1T9r-hCI8s-56" style="edgeStyle=orthogonalEdgeStyle;rounded=0;orthogonalLoop=1;jettySize=auto;html=1;exitX=0.5;exitY=0;exitDx=0;exitDy=0;entryX=0;entryY=0.5;entryDx=0;entryDy=0;" edge="1" parent="1" source="ZjvF378gRw1T9r-hCI8s-23" target="ZjvF378gRw1T9r-hCI8s-14">
          <mxGeometry relative="1" as="geometry" />
        </mxCell>
        <mxCell id="ZjvF378gRw1T9r-hCI8s-23" value="&lt;div&gt;VIP&lt;/div&gt;" style="swimlane;fontStyle=1;align=center;verticalAlign=top;childLayout=stackLayout;horizontal=1;startSize=26;horizontalStack=0;resizeParent=1;resizeParentMax=0;resizeLast=0;collapsible=1;marginBottom=0;whiteSpace=wrap;html=1;" vertex="1" parent="1">
          <mxGeometry x="200" y="770" width="160" height="130" as="geometry" />
        </mxCell>
        <mxCell id="ZjvF378gRw1T9r-hCI8s-24" value="+ recargo: Double&lt;div&gt;+ Servicios: String&lt;/div&gt;" style="text;strokeColor=none;fillColor=none;align=left;verticalAlign=top;spacingLeft=4;spacingRight=4;overflow=hidden;rotatable=0;points=[[0,0.5],[1,0.5]];portConstraint=eastwest;whiteSpace=wrap;html=1;" vertex="1" parent="ZjvF378gRw1T9r-hCI8s-23">
          <mxGeometry y="26" width="160" height="34" as="geometry" />
        </mxCell>
        <mxCell id="ZjvF378gRw1T9r-hCI8s-25" value="" style="line;strokeWidth=1;fillColor=none;align=left;verticalAlign=middle;spacingTop=-1;spacingLeft=3;spacingRight=3;rotatable=0;labelPosition=right;points=[];portConstraint=eastwest;strokeColor=inherit;" vertex="1" parent="ZjvF378gRw1T9r-hCI8s-23">
          <mxGeometry y="60" width="160" height="8" as="geometry" />
        </mxCell>
        <mxCell id="ZjvF378gRw1T9r-hCI8s-26" value="+ Calcular Costo pasaje: Double&lt;div&gt;+ Mostrar informacion: void&lt;/div&gt;" style="text;strokeColor=none;fillColor=none;align=left;verticalAlign=top;spacingLeft=4;spacingRight=4;overflow=hidden;rotatable=0;points=[[0,0.5],[1,0.5]];portConstraint=eastwest;whiteSpace=wrap;html=1;" vertex="1" parent="ZjvF378gRw1T9r-hCI8s-23">
          <mxGeometry y="68" width="160" height="62" as="geometry" />
        </mxCell>
        <mxCell id="ZjvF378gRw1T9r-hCI8s-57" style="edgeStyle=orthogonalEdgeStyle;rounded=0;orthogonalLoop=1;jettySize=auto;html=1;exitX=0.5;exitY=0;exitDx=0;exitDy=0;" edge="1" parent="1" source="ZjvF378gRw1T9r-hCI8s-27" target="ZjvF378gRw1T9r-hCI8s-14">
          <mxGeometry relative="1" as="geometry" />
        </mxCell>
        <mxCell id="ZjvF378gRw1T9r-hCI8s-27" value="&lt;div&gt;General&lt;/div&gt;" style="swimlane;fontStyle=1;align=center;verticalAlign=top;childLayout=stackLayout;horizontal=1;startSize=26;horizontalStack=0;resizeParent=1;resizeParentMax=0;resizeLast=0;collapsible=1;marginBottom=0;whiteSpace=wrap;html=1;" vertex="1" parent="1">
          <mxGeometry x="450" y="770" width="160" height="130" as="geometry" />
        </mxCell>
        <mxCell id="ZjvF378gRw1T9r-hCI8s-28" value="+&amp;nbsp;&lt;div&gt;+ Servicios: String&lt;/div&gt;" style="text;strokeColor=none;fillColor=none;align=left;verticalAlign=top;spacingLeft=4;spacingRight=4;overflow=hidden;rotatable=0;points=[[0,0.5],[1,0.5]];portConstraint=eastwest;whiteSpace=wrap;html=1;" vertex="1" parent="ZjvF378gRw1T9r-hCI8s-27">
          <mxGeometry y="26" width="160" height="34" as="geometry" />
        </mxCell>
        <mxCell id="ZjvF378gRw1T9r-hCI8s-29" value="" style="line;strokeWidth=1;fillColor=none;align=left;verticalAlign=middle;spacingTop=-1;spacingLeft=3;spacingRight=3;rotatable=0;labelPosition=right;points=[];portConstraint=eastwest;strokeColor=inherit;" vertex="1" parent="ZjvF378gRw1T9r-hCI8s-27">
          <mxGeometry y="60" width="160" height="8" as="geometry" />
        </mxCell>
        <mxCell id="ZjvF378gRw1T9r-hCI8s-30" value="+ Calcular Costo pasaje: Double&lt;div&gt;+ Mostrar informacion: void&lt;/div&gt;" style="text;strokeColor=none;fillColor=none;align=left;verticalAlign=top;spacingLeft=4;spacingRight=4;overflow=hidden;rotatable=0;points=[[0,0.5],[1,0.5]];portConstraint=eastwest;whiteSpace=wrap;html=1;" vertex="1" parent="ZjvF378gRw1T9r-hCI8s-27">
          <mxGeometry y="68" width="160" height="62" as="geometry" />
        </mxCell>
        <mxCell id="ZjvF378gRw1T9r-hCI8s-31" value="&lt;div&gt;Riobamba&lt;/div&gt;" style="swimlane;fontStyle=1;align=center;verticalAlign=top;childLayout=stackLayout;horizontal=1;startSize=26;horizontalStack=0;resizeParent=1;resizeParentMax=0;resizeLast=0;collapsible=1;marginBottom=0;whiteSpace=wrap;html=1;" vertex="1" parent="1">
          <mxGeometry x="-40" y="630" width="160" height="94" as="geometry" />
        </mxCell>
        <mxCell id="ZjvF378gRw1T9r-hCI8s-32" value="&lt;div&gt;+ Precio&lt;/div&gt;" style="text;strokeColor=none;fillColor=none;align=left;verticalAlign=top;spacingLeft=4;spacingRight=4;overflow=hidden;rotatable=0;points=[[0,0.5],[1,0.5]];portConstraint=eastwest;whiteSpace=wrap;html=1;" vertex="1" parent="ZjvF378gRw1T9r-hCI8s-31">
          <mxGeometry y="26" width="160" height="34" as="geometry" />
        </mxCell>
        <mxCell id="ZjvF378gRw1T9r-hCI8s-33" value="" style="line;strokeWidth=1;fillColor=none;align=left;verticalAlign=middle;spacingTop=-1;spacingLeft=3;spacingRight=3;rotatable=0;labelPosition=right;points=[];portConstraint=eastwest;strokeColor=inherit;" vertex="1" parent="ZjvF378gRw1T9r-hCI8s-31">
          <mxGeometry y="60" width="160" height="8" as="geometry" />
        </mxCell>
        <mxCell id="ZjvF378gRw1T9r-hCI8s-34" value="+ Mostrar informaciÃ³n&amp;nbsp;" style="text;strokeColor=none;fillColor=none;align=left;verticalAlign=top;spacingLeft=4;spacingRight=4;overflow=hidden;rotatable=0;points=[[0,0.5],[1,0.5]];portConstraint=eastwest;whiteSpace=wrap;html=1;" vertex="1" parent="ZjvF378gRw1T9r-hCI8s-31">
          <mxGeometry y="68" width="160" height="26" as="geometry" />
        </mxCell>
        <mxCell id="ZjvF378gRw1T9r-hCI8s-35" style="edgeStyle=orthogonalEdgeStyle;rounded=0;orthogonalLoop=1;jettySize=auto;html=1;exitX=0.5;exitY=0;exitDx=0;exitDy=0;entryX=1.019;entryY=0.265;entryDx=0;entryDy=0;entryPerimeter=0;" edge="1" parent="1" source="ZjvF378gRw1T9r-hCI8s-13" target="ZjvF378gRw1T9r-hCI8s-6">
          <mxGeometry relative="1" as="geometry">
            <Array as="points">
              <mxPoint x="410" y="580" />
              <mxPoint x="540" y="580" />
              <mxPoint x="540" y="495" />
            </Array>
          </mxGeometry>
        </mxCell>
        <mxCell id="ZjvF378gRw1T9r-hCI8s-40" value="Puyo" style="swimlane;fontStyle=1;align=center;verticalAlign=top;childLayout=stackLayout;horizontal=1;startSize=26;horizontalStack=0;resizeParent=1;resizeParentMax=0;resizeLast=0;collapsible=1;marginBottom=0;whiteSpace=wrap;html=1;" vertex="1" parent="1">
          <mxGeometry x="-40" y="500" width="160" height="94" as="geometry" />
        </mxCell>
        <mxCell id="ZjvF378gRw1T9r-hCI8s-41" value="&lt;div&gt;+ Precio: Double&lt;/div&gt;" style="text;strokeColor=none;fillColor=none;align=left;verticalAlign=top;spacingLeft=4;spacingRight=4;overflow=hidden;rotatable=0;points=[[0,0.5],[1,0.5]];portConstraint=eastwest;whiteSpace=wrap;html=1;" vertex="1" parent="ZjvF378gRw1T9r-hCI8s-40">
          <mxGeometry y="26" width="160" height="34" as="geometry" />
        </mxCell>
        <mxCell id="ZjvF378gRw1T9r-hCI8s-42" value="" style="line;strokeWidth=1;fillColor=none;align=left;verticalAlign=middle;spacingTop=-1;spacingLeft=3;spacingRight=3;rotatable=0;labelPosition=right;points=[];portConstraint=eastwest;strokeColor=inherit;" vertex="1" parent="ZjvF378gRw1T9r-hCI8s-40">
          <mxGeometry y="60" width="160" height="8" as="geometry" />
        </mxCell>
        <mxCell id="ZjvF378gRw1T9r-hCI8s-43" value="+ Mostrar Precio" style="text;strokeColor=none;fillColor=none;align=left;verticalAlign=top;spacingLeft=4;spacingRight=4;overflow=hidden;rotatable=0;points=[[0,0.5],[1,0.5]];portConstraint=eastwest;whiteSpace=wrap;html=1;" vertex="1" parent="ZjvF378gRw1T9r-hCI8s-40">
          <mxGeometry y="68" width="160" height="26" as="geometry" />
        </mxCell>
        <mxCell id="ZjvF378gRw1T9r-hCI8s-44" value="&lt;div&gt;TulcÃ¡n&amp;nbsp;&lt;/div&gt;" style="swimlane;fontStyle=1;align=center;verticalAlign=top;childLayout=stackLayout;horizontal=1;startSize=26;horizontalStack=0;resizeParent=1;resizeParentMax=0;resizeLast=0;collapsible=1;marginBottom=0;whiteSpace=wrap;html=1;" vertex="1" parent="1">
          <mxGeometry x="-40" y="370" width="160" height="100" as="geometry" />
        </mxCell>
        <mxCell id="ZjvF378gRw1T9r-hCI8s-45" value="&lt;div&gt;+precio: Double&lt;/div&gt;" style="text;strokeColor=none;fillColor=none;align=left;verticalAlign=top;spacingLeft=4;spacingRight=4;overflow=hidden;rotatable=0;points=[[0,0.5],[1,0.5]];portConstraint=eastwest;whiteSpace=wrap;html=1;" vertex="1" parent="ZjvF378gRw1T9r-hCI8s-44">
          <mxGeometry y="26" width="160" height="34" as="geometry" />
        </mxCell>
        <mxCell id="ZjvF378gRw1T9r-hCI8s-46" value="" style="line;strokeWidth=1;fillColor=none;align=left;verticalAlign=middle;spacingTop=-1;spacingLeft=3;spacingRight=3;rotatable=0;labelPosition=right;points=[];portConstraint=eastwest;strokeColor=inherit;" vertex="1" parent="ZjvF378gRw1T9r-hCI8s-44">
          <mxGeometry y="60" width="160" height="8" as="geometry" />
        </mxCell>
        <mxCell id="ZjvF378gRw1T9r-hCI8s-47" value="+ Mostrar InformaciÃ³n: String" style="text;strokeColor=none;fillColor=none;align=left;verticalAlign=top;spacingLeft=4;spacingRight=4;overflow=hidden;rotatable=0;points=[[0,0.5],[1,0.5]];portConstraint=eastwest;whiteSpace=wrap;html=1;" vertex="1" parent="ZjvF378gRw1T9r-hCI8s-44">
          <mxGeometry y="68" width="160" height="32" as="geometry" />
        </mxCell>
        <mxCell id="ZjvF378gRw1T9r-hCI8s-48" value="&lt;div&gt;Guayaquil&lt;/div&gt;" style="swimlane;fontStyle=1;align=center;verticalAlign=top;childLayout=stackLayout;horizontal=1;startSize=26;horizontalStack=0;resizeParent=1;resizeParentMax=0;resizeLast=0;collapsible=1;marginBottom=0;whiteSpace=wrap;html=1;" vertex="1" parent="1">
          <mxGeometry x="-40" y="240" width="160" height="100" as="geometry" />
        </mxCell>
        <mxCell id="ZjvF378gRw1T9r-hCI8s-49" value="&lt;div&gt;+ Pasaje: Double&lt;/div&gt;" style="text;strokeColor=none;fillColor=none;align=left;verticalAlign=top;spacingLeft=4;spacingRight=4;overflow=hidden;rotatable=0;points=[[0,0.5],[1,0.5]];portConstraint=eastwest;whiteSpace=wrap;html=1;" vertex="1" parent="ZjvF378gRw1T9r-hCI8s-48">
          <mxGeometry y="26" width="160" height="34" as="geometry" />
        </mxCell>
        <mxCell id="ZjvF378gRw1T9r-hCI8s-50" value="" style="line;strokeWidth=1;fillColor=none;align=left;verticalAlign=middle;spacingTop=-1;spacingLeft=3;spacingRight=3;rotatable=0;labelPosition=right;points=[];portConstraint=eastwest;strokeColor=inherit;" vertex="1" parent="ZjvF378gRw1T9r-hCI8s-48">
          <mxGeometry y="60" width="160" height="8" as="geometry" />
        </mxCell>
        <mxCell id="ZjvF378gRw1T9r-hCI8s-51" value="+ Mostrar informaciÃ³n: String" style="text;strokeColor=none;fillColor=none;align=left;verticalAlign=top;spacingLeft=4;spacingRight=4;overflow=hidden;rotatable=0;points=[[0,0.5],[1,0.5]];portConstraint=eastwest;whiteSpace=wrap;html=1;" vertex="1" parent="ZjvF378gRw1T9r-hCI8s-48">
          <mxGeometry y="68" width="160" height="32" as="geometry" />
        </mxCell>
        <mxCell id="ZjvF378gRw1T9r-hCI8s-52" style="edgeStyle=orthogonalEdgeStyle;rounded=0;orthogonalLoop=1;jettySize=auto;html=1;" edge="1" parent="1" source="ZjvF378gRw1T9r-hCI8s-49" target="ZjvF378gRw1T9r-hCI8s-6">
          <mxGeometry relative="1" as="geometry" />
        </mxCell>
        <mxCell id="ZjvF378gRw1T9r-hCI8s-53" style="edgeStyle=orthogonalEdgeStyle;rounded=0;orthogonalLoop=1;jettySize=auto;html=1;" edge="1" parent="1" source="ZjvF378gRw1T9r-hCI8s-45" target="ZjvF378gRw1T9r-hCI8s-6">
          <mxGeometry relative="1" as="geometry" />
        </mxCell>
        <mxCell id="ZjvF378gRw1T9r-hCI8s-54" style="edgeStyle=orthogonalEdgeStyle;rounded=0;orthogonalLoop=1;jettySize=auto;html=1;entryX=0;entryY=0.5;entryDx=0;entryDy=0;" edge="1" parent="1" source="ZjvF378gRw1T9r-hCI8s-41" target="ZjvF378gRw1T9r-hCI8s-6">
          <mxGeometry relative="1" as="geometry" />
        </mxCell>
        <mxCell id="ZjvF378gRw1T9r-hCI8s-55" style="edgeStyle=orthogonalEdgeStyle;rounded=0;orthogonalLoop=1;jettySize=auto;html=1;" edge="1" parent="1" source="ZjvF378gRw1T9r-hCI8s-32" target="ZjvF378gRw1T9r-hCI8s-6">
          <mxGeometry relative="1" as="geometry" />
        </mxCell>
        <mxCell id="ZjvF378gRw1T9r-hCI8s-66" style="edgeStyle=orthogonalEdgeStyle;rounded=0;orthogonalLoop=1;jettySize=auto;html=1;exitX=0.5;exitY=0;exitDx=0;exitDy=0;" edge="1" parent="1" source="ZjvF378gRw1T9r-hCI8s-58" target="ZjvF378gRw1T9r-hCI8s-24">
          <mxGeometry relative="1" as="geometry">
            <Array as="points">
              <mxPoint x="280" y="920" />
              <mxPoint x="150" y="920" />
              <mxPoint x="150" y="813" />
            </Array>
          </mxGeometry>
        </mxCell>
        <mxCell id="ZjvF378gRw1T9r-hCI8s-58" value="&lt;div&gt;VIP&lt;/div&gt;" style="swimlane;fontStyle=0;align=center;verticalAlign=top;childLayout=stackLayout;horizontal=1;startSize=26;horizontalStack=0;resizeParent=1;resizeParentMax=0;resizeLast=0;collapsible=1;marginBottom=0;whiteSpace=wrap;html=1;" vertex="1" parent="1">
          <mxGeometry x="200" y="960" width="160" height="140" as="geometry" />
        </mxCell>
        <mxCell id="ZjvF378gRw1T9r-hCI8s-59" value="+ Servicios extra: String&lt;div&gt;+ Espacio: int&lt;/div&gt;&lt;div&gt;+ Espacio adicional:double&lt;/div&gt;" style="text;strokeColor=none;fillColor=none;align=left;verticalAlign=top;spacingLeft=4;spacingRight=4;overflow=hidden;rotatable=0;points=[[0,0.5],[1,0.5]];portConstraint=eastwest;whiteSpace=wrap;html=1;" vertex="1" parent="ZjvF378gRw1T9r-hCI8s-58">
          <mxGeometry y="26" width="160" height="64" as="geometry" />
        </mxCell>
        <mxCell id="ZjvF378gRw1T9r-hCI8s-60" value="" style="line;strokeWidth=1;fillColor=none;align=left;verticalAlign=middle;spacingTop=-1;spacingLeft=3;spacingRight=3;rotatable=0;labelPosition=right;points=[];portConstraint=eastwest;strokeColor=inherit;" vertex="1" parent="ZjvF378gRw1T9r-hCI8s-58">
          <mxGeometry y="90" width="160" height="8" as="geometry" />
        </mxCell>
        <mxCell id="ZjvF378gRw1T9r-hCI8s-61" value="+ Calcular Costo pasaje: Double" style="text;strokeColor=none;fillColor=none;align=left;verticalAlign=top;spacingLeft=4;spacingRight=4;overflow=hidden;rotatable=0;points=[[0,0.5],[1,0.5]];portConstraint=eastwest;whiteSpace=wrap;html=1;" vertex="1" parent="ZjvF378gRw1T9r-hCI8s-58">
          <mxGeometry y="98" width="160" height="42" as="geometry" />
        </mxCell>
        <mxCell id="ZjvF378gRw1T9r-hCI8s-67" style="edgeStyle=orthogonalEdgeStyle;rounded=0;orthogonalLoop=1;jettySize=auto;html=1;entryX=1;entryY=0.5;entryDx=0;entryDy=0;" edge="1" parent="1" source="ZjvF378gRw1T9r-hCI8s-62" target="ZjvF378gRw1T9r-hCI8s-28">
          <mxGeometry relative="1" as="geometry">
            <Array as="points">
              <mxPoint x="530" y="920" />
              <mxPoint x="680" y="920" />
              <mxPoint x="680" y="813" />
            </Array>
          </mxGeometry>
        </mxCell>
        <mxCell id="ZjvF378gRw1T9r-hCI8s-62" value="&lt;div&gt;General&lt;/div&gt;" style="swimlane;fontStyle=0;align=center;verticalAlign=top;childLayout=stackLayout;horizontal=1;startSize=26;horizontalStack=0;resizeParent=1;resizeParentMax=0;resizeLast=0;collapsible=1;marginBottom=0;whiteSpace=wrap;html=1;" vertex="1" parent="1">
          <mxGeometry x="450" y="960" width="160" height="120" as="geometry" />
        </mxCell>
        <mxCell id="ZjvF378gRw1T9r-hCI8s-63" value="+ espacio: int&lt;div&gt;+espacio adicional: double&lt;/div&gt;" style="text;strokeColor=none;fillColor=none;align=left;verticalAlign=top;spacingLeft=4;spacingRight=4;overflow=hidden;rotatable=0;points=[[0,0.5],[1,0.5]];portConstraint=eastwest;whiteSpace=wrap;html=1;" vertex="1" parent="ZjvF378gRw1T9r-hCI8s-62">
          <mxGeometry y="26" width="160" height="44" as="geometry" />
        </mxCell>
        <mxCell id="ZjvF378gRw1T9r-hCI8s-64" value="" style="line;strokeWidth=1;fillColor=none;align=left;verticalAlign=middle;spacingTop=-1;spacingLeft=3;spacingRight=3;rotatable=0;labelPosition=right;points=[];portConstraint=eastwest;strokeColor=inherit;" vertex="1" parent="ZjvF378gRw1T9r-hCI8s-62">
          <mxGeometry y="70" width="160" height="8" as="geometry" />
        </mxCell>
        <mxCell id="ZjvF378gRw1T9r-hCI8s-65" value="+ Calcular Costo pasaje: Double" style="text;strokeColor=none;fillColor=none;align=left;verticalAlign=top;spacingLeft=4;spacingRight=4;overflow=hidden;rotatable=0;points=[[0,0.5],[1,0.5]];portConstraint=eastwest;whiteSpace=wrap;html=1;" vertex="1" parent="ZjvF378gRw1T9r-hCI8s-62">
          <mxGeometry y="78" width="160" height="42" as="geometry" />
        </mxCell>
      </root>
    </mxGraphModel>
  </diagram>
</mxfile>
